<svg xmlns="http://www.w3.org/2000/svg" width="36" height="36" viewBox="0 0 36 36" fill="none">
    <rect width="36" height="36" rx="18" fill="#419FD9"/>
    <path fill-rule="evenodd" clip-rule="evenodd" d="M22.0018 26.9128C23.2599 27.4632 23.7317 26.3099 23.7317 26.3099L27.0605 9.58727C27.0343 8.46019 25.5141 9.14168 25.5141 9.14168L6.878 16.4546C6.878 16.4546 5.98683 16.7691 6.06546 17.3195C6.14409 17.87 6.85179 18.1321 6.85179 18.1321L11.5436 19.7048C11.5436 19.7048 12.959 24.3441 13.2473 25.2353C13.5094 26.1003 13.7453 26.1265 13.7453 26.1265C14.0074 26.2313 14.2433 26.0478 14.2433 26.0478L17.2838 23.2957L22.0018 26.9128ZM22.8144 12.5491C22.8144 12.5491 23.4696 12.1559 23.4434 12.5491C23.4434 12.5491 23.5483 12.6015 23.2075 12.9685C22.893 13.283 15.4753 19.9406 14.4792 20.8318C14.4006 20.8842 14.3482 20.9629 14.3482 21.0677L14.0599 23.5315C14.0074 23.7937 13.6667 23.8199 13.5881 23.584L12.3561 19.5475C12.3037 19.3902 12.3561 19.2067 12.5134 19.1019L22.8144 12.5491Z" fill="white"/>
</svg>
