<svg xmlns="http://www.w3.org/2000/svg" width="36" height="36" viewBox="0 0 36 36" fill="none">
    <rect width="36" height="36" rx="18" fill="url(#paint0_linear_4317_73390)"/>
    <path d="M14.2506 18C14.2506 15.929 15.929 14.2497 18 14.2497C20.071 14.2497 21.7503 15.929 21.7503 18C21.7503 20.071 20.071 21.7503 18 21.7503C15.929 21.7503 14.2506 20.071 14.2506 18ZM12.2233 18C12.2233 21.1905 14.8095 23.7767 18 23.7767C21.1905 23.7767 23.7767 21.1905 23.7767 18C23.7767 14.8095 21.1905 12.2233 18 12.2233C14.8095 12.2233 12.2233 14.8095 12.2233 18ZM22.6554 11.9942C22.6553 12.2612 22.7344 12.5223 22.8826 12.7443C23.0309 12.9664 23.2417 13.1395 23.4883 13.2418C23.7349 13.3441 24.0064 13.3709 24.2683 13.3189C24.5302 13.2669 24.7708 13.1385 24.9596 12.9497C25.1485 12.761 25.2772 12.5205 25.3294 12.2587C25.3816 11.9968 25.355 11.7253 25.2529 11.4786C25.1508 11.2319 24.9778 11.021 24.7559 10.8726C24.534 10.7241 24.273 10.6449 24.006 10.6447H24.0054C23.6475 10.6449 23.3043 10.7871 23.0512 11.0401C22.7981 11.2932 22.6557 11.6363 22.6554 11.9942ZM13.455 27.1572C12.3582 27.1073 11.762 26.9246 11.3658 26.7702C10.8406 26.5657 10.4658 26.3222 10.0718 25.9287C9.67779 25.5352 9.43389 25.1608 9.23031 24.6356C9.07587 24.2396 8.89317 23.6433 8.84331 22.5464C8.78877 21.3606 8.77788 21.0044 8.77788 18.0001C8.77788 14.9958 8.78967 14.6406 8.84331 13.4537C8.89326 12.3569 9.07731 11.7617 9.23031 11.3646C9.43479 10.8393 9.67833 10.4646 10.0718 10.0705C10.4653 9.67653 10.8397 9.43263 11.3658 9.22905C11.7618 9.07461 12.3582 8.89191 13.455 8.84205C14.6408 8.78751 14.9971 8.77662 18 8.77662C21.0029 8.77662 21.3595 8.78841 22.5464 8.84205C23.6432 8.892 24.2384 9.07605 24.6355 9.22905C25.1608 9.43263 25.5355 9.67707 25.9295 10.0705C26.3236 10.464 26.5666 10.8393 26.771 11.3646C26.9255 11.7606 27.1082 12.3569 27.158 13.4537C27.2126 14.6406 27.2235 14.9958 27.2235 18.0001C27.2235 21.0044 27.2126 21.3596 27.158 22.5464C27.1081 23.6433 26.9245 24.2394 26.771 24.6356C26.5666 25.1608 26.323 25.5356 25.9295 25.9287C25.5361 26.3218 25.1608 26.5657 24.6355 26.7702C24.2395 26.9247 23.6432 27.1074 22.5464 27.1572C21.3605 27.2118 21.0043 27.2227 18 27.2227C14.9957 27.2227 14.6405 27.2118 13.455 27.1572ZM13.3619 6.81813C12.1642 6.87267 11.3458 7.06257 10.6312 7.34067C9.891 7.62786 9.26442 8.01315 8.63829 8.63829C8.01216 9.26343 7.62786 9.891 7.34067 10.6312C7.06257 11.3463 6.87267 12.1642 6.81813 13.3618C6.76269 14.5614 6.75 14.9449 6.75 18C6.75 21.0551 6.76269 21.4386 6.81813 22.6381C6.87267 23.8359 7.06257 24.6537 7.34067 25.3688C7.62786 26.1085 8.01225 26.7368 8.63829 27.3617C9.26433 27.9866 9.891 28.3713 10.6312 28.6593C11.3472 28.9374 12.1642 29.1273 13.3619 29.1819C14.562 29.2364 14.9449 29.25 18 29.25C21.0551 29.25 21.4386 29.2373 22.6382 29.1819C23.8359 29.1273 24.6537 28.9374 25.3688 28.6593C26.1086 28.3713 26.7356 27.9868 27.3617 27.3617C27.9878 26.7366 28.3713 26.1085 28.6593 25.3688C28.9374 24.6537 29.1282 23.8358 29.1819 22.6381C29.2364 21.4377 29.2491 21.0551 29.2491 18C29.2491 14.9449 29.2364 14.5614 29.1819 13.3618C29.1273 12.1641 28.9374 11.3458 28.6593 10.6312C28.3713 9.89145 27.9869 9.26442 27.3617 8.63829C26.7366 8.01216 26.1086 7.62786 25.3697 7.34067C24.6537 7.06257 23.8358 6.87177 22.6391 6.81813C21.4395 6.76359 21.056 6.75 18.0009 6.75C14.9458 6.75 14.562 6.76269 13.3619 6.81813Z" fill="white"/>
    <defs>
        <linearGradient id="paint0_linear_4317_73390" x1="7.92" y1="4.176" x2="20.88" y2="40.32" gradientUnits="userSpaceOnUse">
            <stop stop-color="#8F00FF"/>
            <stop offset="0.342196" stop-color="#DB00FF"/>
            <stop offset="0.875548" stop-color="#FFC700"/>
            <stop offset="1" stop-color="white"/>
        </linearGradient>
    </defs>
</svg>
