<svg xmlns="http://www.w3.org/2000/svg" width="36" height="36" viewBox="0 0 36 36" fill="none">
    <rect width="36" height="36" rx="18" fill="#0DC143"/>
    <path d="M26.0638 9.90862C24.1341 7.92213 21.4665 6.84375 18.7422 6.84375C12.953 6.84375 8.29894 11.5546 8.3557 17.287C8.3557 19.1032 8.86651 20.8627 9.71786 22.4519L8.24219 27.8438L13.7476 26.4248C15.28 27.2762 16.9827 27.6735 18.6854 27.6735C24.4179 27.6735 29.0719 22.9627 29.0719 17.2302C29.0719 14.4492 27.9935 11.8383 26.0638 9.90862ZM18.7422 25.914C17.2098 25.914 15.6773 25.5167 14.3719 24.7221L14.0314 24.5519L10.7395 25.4032L11.5908 22.1681L11.3638 21.8275C8.86651 17.7978 10.0584 12.4627 14.1449 9.96537C18.2314 7.46807 23.5098 8.65997 26.0071 12.7465C28.5043 16.8329 27.3125 22.1113 23.226 24.6086C21.9206 25.46 20.3314 25.914 18.7422 25.914ZM23.7368 19.614L23.1125 19.3302C23.1125 19.3302 22.2043 18.9329 21.6368 18.6492C21.58 18.6492 21.5233 18.5924 21.4665 18.5924C21.2962 18.5924 21.1827 18.6492 21.0692 18.7059C21.0692 18.7059 21.0125 18.7627 20.2179 19.6708C20.1611 19.7843 20.0476 19.841 19.9341 19.841H19.8773C19.8206 19.841 19.7071 19.7843 19.6503 19.7275L19.3665 19.614C18.7422 19.3302 18.1746 18.9897 17.7206 18.5356C17.6071 18.4221 17.4368 18.3086 17.3233 18.1951C16.926 17.7978 16.5287 17.3438 16.2449 16.8329L16.1881 16.7194C16.1314 16.6627 16.1314 16.6059 16.0746 16.4924C16.0746 16.3789 16.0746 16.2654 16.1314 16.2086C16.1314 16.2086 16.3584 15.9248 16.5287 15.7546C16.6422 15.641 16.6989 15.4708 16.8125 15.3573C16.926 15.187 16.9827 14.96 16.926 14.7897C16.8692 14.5059 16.1881 12.9735 16.0179 12.6329C15.9043 12.4627 15.7908 12.4059 15.6206 12.3492H15.4503C15.3368 12.3492 15.1665 12.3492 14.9962 12.3492C14.8827 12.3492 14.7692 12.4059 14.6557 12.4059L14.5989 12.4627C14.4854 12.5194 14.3719 12.6329 14.2584 12.6897C14.1449 12.8032 14.0881 12.9167 13.9746 13.0302C13.5773 13.541 13.3503 14.1654 13.3503 14.7897C13.3503 15.2438 13.4638 15.6978 13.6341 16.0951L13.6908 16.2654C14.2016 17.3438 14.8827 18.3086 15.7908 19.16L16.0179 19.387C16.1881 19.5573 16.3584 19.6708 16.4719 19.841C17.6638 20.8627 19.026 21.6005 20.5584 21.9978C20.7287 22.0546 20.9557 22.0546 21.126 22.1113C21.2962 22.1113 21.5233 22.1113 21.6935 22.1113C21.9773 22.1113 22.3179 21.9978 22.5449 21.8843C22.7152 21.7708 22.8287 21.7708 22.9422 21.6573L23.0557 21.5438C23.1692 21.4302 23.2827 21.3735 23.3962 21.26C23.5098 21.1465 23.6233 21.0329 23.68 20.9194C23.7935 20.6924 23.8503 20.4086 23.9071 20.1248C23.9071 20.0113 23.9071 19.841 23.9071 19.7275C23.9071 19.7275 23.8503 19.6708 23.7368 19.614Z" fill="white"/>
</svg>
